<?xml version="1.0" encoding="UTF-8" standalone="no"?>
<!-- Created with Inkscape (http://www.inkscape.org/) -->

<svg
   version="1.1"
   id="svg1"
   width="693.61426"
   height="196.92322"
   viewBox="0 0 693.61426 196.92322"
   sodipodi:docname="G3O.svg"
   inkscape:version="1.3.2 (091e20e, 2023-11-25, custom)"
   inkscape:export-filename="..\..\..\Programacion\ProyectoG3O\static\images\G3O.svg"
   inkscape:export-xdpi="96"
   inkscape:export-ydpi="96"
   xmlns:inkscape="http://www.inkscape.org/namespaces/inkscape"
   xmlns:sodipodi="http://sodipodi.sourceforge.net/DTD/sodipodi-0.dtd"
   xmlns="http://www.w3.org/2000/svg"
   xmlns:svg="http://www.w3.org/2000/svg">
  <defs
     id="defs1" />
  <sodipodi:namedview
     id="namedview1"
     pagecolor="#505050"
     bordercolor="#eeeeee"
     borderopacity="1"
     inkscape:showpageshadow="0"
     inkscape:pageopacity="0"
     inkscape:pagecheckerboard="0"
     inkscape:deskcolor="#505050"
     showgrid="false"
     inkscape:zoom="0.4125"
     inkscape:cx="683.63636"
     inkscape:cy="1761.2121"
     inkscape:window-width="1920"
     inkscape:window-height="1017"
     inkscape:window-x="-8"
     inkscape:window-y="-8"
     inkscape:window-maximized="1"
     inkscape:current-layer="g1" />
  <path
     style="fill:#000000"
     d="m 61.517939,195.92297 c -11.56329,-1.0209 -19.81155,-3.567 -28.71435,-8.8635 -18.49268,-11.0019 -29.3556201,-27.656 -32.01565013,-49.0836 -1.45456,-11.7172 -0.74553,-80.817602 0.90720003,-88.414102 3.44479,-15.8334 18.2868701,-33.9328 34.8162501,-42.4573004 12.5741,-6.48470002 11.29259,-6.36520002 72.792201,-6.78570002 35.1816,-0.2406 58.85949,0 63.69182,0.6508 14.92967,2.00650002 25.90098,7.39530002 36.83479,18.09220042 12.36363,12.0957 19.39474,28.3489 20.11584,46.5 l 0.35755,9 h -23.5 -23.5 l -0.62328,-7.6677 c -0.81206,-9.9899 -4.97484,-16.0809 -12.77594,-18.6938 -4.53146,-1.5177 -103.938471,-1.589 -109.378111,-0.078 -5.27229,1.4642 -10.26699,6.1886 -12.40776,11.7365 -1.6195,4.197 -1.81491,8.2026 -1.81491,37.2034 0,37.442802 0.37349,39.926102 7.00159,46.554202 2.42151,2.4215 5.48645,4.3934 7.43427,4.783 5.34341,1.0687 105.162761,0.7817 108.980871,-0.3133 5.81233,-1.6674 13.08327,-10.277 13.08327,-15.4925 v -2.508 l -38.25,-0.2619 -38.25,-0.2619 v -23 -23.000002 h 50 c 55.74044,0 55.84425,0.011 62.9552,6.5655 8.20835,7.5662 12.24221,21.217602 11.06155,37.434502 -1.60176,22.001 -6.86187,35.5936 -18.28696,47.2551 -13.44716,13.7254 -26.03509,19.4365 -46.72979,21.2011 -14.21938,1.2124 -89.759471,1.1433 -103.785651,-0.095 z m 189.035651,0.3224 -2.75,-0.3164 v -23.4336 -23.4336 h 82.56574 c 55.00236,0 83.21146,-0.3456 84.49996,-1.0352 1.7379,-0.93 1.9343,-2.1871 1.9343,-12.3775 0,-8.2775 -0.3632,-11.6438 -1.3441,-12.4579 -0.9534,-0.7913 -21.3729,-1.1902 -70.25,-1.3725 l -68.9059,-0.2569 v -23.000002 -23 l 69,-0.5 c 37.95,-0.275 69.5625,-0.8641 70.25,-1.309 1.8349,-1.1876 1.7496,-24.0315 -0.095,-25.5627 -0.9612,-0.7978 -25.0207,-1.1897 -84.24996,-1.3725 l -82.90504,-0.2558 -0.26843,-23.25 -0.26843,-23.25000042 h 84.33477 c 56.25339,0 86.31049,0.3609 90.26839,1.08380002 14.8174,2.7064 28.578,13.3000004 35.4555,27.2955004 5.0904,10.3585 6.1471,15.9663 6.1471,32.6207 0,15.3003 -0.9957,21.5632 -4.7237,29.7134 -2.8296,6.1863 -2.8135,6.4891 0.8942,16.786602 7.0366,19.5426 5.155,50.088 -3.9312,63.8181 -8.2875,12.5232 -19.9259,20.5345 -34.8197,23.968 -3.6666,0.8453 -27.8625,1.1788 -86.5885,1.1935 -44.825,0.011 -82.7375,-0.122 -84.25,-0.296 z m 304.25,-0.811 c -25.6705,-3.4 -44.6763,-15.2867 -59.3274,-37.105 -8.8617,-13.1966 -12.6188,-30.6483 -12.6531,-58.773702 -0.029,-24.1138 2.0295,-39.2559 6.8618,-50.4645 11.1694,-25.9075 33.7051,-43.3677004 61.247,-47.4529004 14.4544,-2.14400002 59.7639,-2.19550002 73.8225,-0.084 26.6181,3.998 47.7296,19.5076004 59.9022,44.0074004 4.8818,9.8255 5.623,12.6071 7.727,29 1.9807,15.4318 1.5153,40.960602 -0.9982,54.760402 -3.2703,17.9542 -11.4189,32.8926 -24.5984,45.0944 -8.1806,7.5739 -12.9486,10.6627 -23.1894,15.0229 -8.6078,3.6649 -12.2073,4.4851 -28.794,6.561 -11.6702,1.4606 -47.2308,1.1251 -60,-0.5661 z m 71.1757,-49.0335 c 6.5978,-3.0492 12.9595,-9.2776 16.3886,-16.0453 l 2.9357,-5.7938 V 98.061768 c 0,-24.787 -0.1352,-26.7909 -2.0918,-31 -2.8562,-6.1441 -6.8893,-10.6929 -12.877,-14.5232 -8.0671,-5.1605 -12.5876,-5.6879 -45.5312,-5.3128 -29.3561,0.3344 -29.5271,0.3487 -35.0456,2.9371 -7.9144,3.7122 -12.4373,8.1033 -16.1839,15.7124 l -3.2705,6.6423 v 25.5221 c 0,24.454302 0.095,25.729002 2.28,30.467002 3.1693,6.8736 6.4925,10.9585 11.9954,14.7446 7.911,5.4429 10.5165,5.7612 45.2246,5.5249 29.9286,-0.2037 31.7332,-0.3222 36.1757,-2.3753 z"
     id="path1"
     sodipodi:nodetypes="sssssscsscccssssssscscccccssssssscccssssscccsssscccsssssssssssssssssssssssssscsssssscscsss" />
</svg>
